<mxfile host="app.diagrams.net" modified="2021-09-24T09:34:28.883Z" agent="5.0 (Windows NT 10.0; Win64; x64) AppleWebKit/537.36 (KHTML, like Gecko) Chrome/93.0.4577.82 Safari/537.36" etag="1SgNUP8H1xGuwGx9Fiis" version="15.2.9" type="github">
  <diagram id="1LRT3DBesj0lg8QnRvvJ" name="第 1 页">
    <mxGraphModel dx="1422" dy="762" grid="1" gridSize="10" guides="1" tooltips="1" connect="1" arrows="1" fold="1" page="1" pageScale="1" pageWidth="827" pageHeight="1169" math="0" shadow="0">
      <root>
        <mxCell id="0" />
        <mxCell id="1" parent="0" />
        <mxCell id="KPu6r4FRbTXP471V9_lv-2" value="node1" style="whiteSpace=wrap;html=1;align=left;verticalAlign=top;fillColor=#dae8fc;strokeColor=#6c8ebf;" vertex="1" parent="1">
          <mxGeometry x="220" y="280" width="370" height="200" as="geometry" />
        </mxCell>
        <mxCell id="KPu6r4FRbTXP471V9_lv-13" value="disk2" style="rounded=0;whiteSpace=wrap;html=1;verticalAlign=top;align=left;fillColor=#f8cecc;strokeColor=#b85450;" vertex="1" parent="1">
          <mxGeometry x="240" y="406" width="310" height="40" as="geometry" />
        </mxCell>
        <mxCell id="KPu6r4FRbTXP471V9_lv-14" value="disk1" style="rounded=0;whiteSpace=wrap;html=1;verticalAlign=top;align=left;fillColor=#f8cecc;strokeColor=#b85450;" vertex="1" parent="1">
          <mxGeometry x="270" y="416" width="310" height="40" as="geometry" />
        </mxCell>
        <mxCell id="KPu6r4FRbTXP471V9_lv-17" value="pod" style="rounded=1;whiteSpace=wrap;html=1;align=left;verticalAlign=top;" vertex="1" parent="1">
          <mxGeometry x="260" y="303" width="100" height="60" as="geometry" />
        </mxCell>
        <mxCell id="KPu6r4FRbTXP471V9_lv-26" style="rounded=0;orthogonalLoop=1;jettySize=auto;html=1;exitX=0.5;exitY=1;exitDx=0;exitDy=0;" edge="1" parent="1" source="KPu6r4FRbTXP471V9_lv-25">
          <mxGeometry relative="1" as="geometry">
            <mxPoint x="316" y="416" as="targetPoint" />
          </mxGeometry>
        </mxCell>
        <mxCell id="KPu6r4FRbTXP471V9_lv-30" value="挂载" style="edgeLabel;html=1;align=center;verticalAlign=middle;resizable=0;points=[];" vertex="1" connectable="0" parent="KPu6r4FRbTXP471V9_lv-26">
          <mxGeometry x="-0.0858" y="1" relative="1" as="geometry">
            <mxPoint as="offset" />
          </mxGeometry>
        </mxCell>
        <mxCell id="KPu6r4FRbTXP471V9_lv-25" value="container" style="rounded=1;whiteSpace=wrap;html=1;align=center;verticalAlign=middle;" vertex="1" parent="1">
          <mxGeometry x="280" y="323" width="70" height="29" as="geometry" />
        </mxCell>
        <mxCell id="KPu6r4FRbTXP471V9_lv-50" value="pod" style="rounded=1;whiteSpace=wrap;html=1;align=left;verticalAlign=top;" vertex="1" parent="1">
          <mxGeometry x="379" y="320.56" width="100" height="60" as="geometry" />
        </mxCell>
        <mxCell id="KPu6r4FRbTXP471V9_lv-51" style="rounded=0;orthogonalLoop=1;jettySize=auto;html=1;exitX=0.5;exitY=1;exitDx=0;exitDy=0;entryX=0.5;entryY=0;entryDx=0;entryDy=0;" edge="1" parent="1" source="KPu6r4FRbTXP471V9_lv-53">
          <mxGeometry relative="1" as="geometry">
            <mxPoint x="434" y="416" as="targetPoint" />
          </mxGeometry>
        </mxCell>
        <mxCell id="KPu6r4FRbTXP471V9_lv-52" value="挂载" style="edgeLabel;html=1;align=center;verticalAlign=middle;resizable=0;points=[];" vertex="1" connectable="0" parent="KPu6r4FRbTXP471V9_lv-51">
          <mxGeometry x="-0.0858" y="1" relative="1" as="geometry">
            <mxPoint as="offset" />
          </mxGeometry>
        </mxCell>
        <mxCell id="KPu6r4FRbTXP471V9_lv-53" value="container" style="rounded=1;whiteSpace=wrap;html=1;align=center;verticalAlign=middle;" vertex="1" parent="1">
          <mxGeometry x="399" y="340.56" width="70" height="29" as="geometry" />
        </mxCell>
        <mxCell id="KPu6r4FRbTXP471V9_lv-54" value="node2" style="whiteSpace=wrap;html=1;align=left;verticalAlign=top;fillColor=#dae8fc;strokeColor=#6c8ebf;" vertex="1" parent="1">
          <mxGeometry x="620" y="280" width="370" height="200" as="geometry" />
        </mxCell>
        <mxCell id="KPu6r4FRbTXP471V9_lv-55" value="disk2" style="rounded=0;whiteSpace=wrap;html=1;verticalAlign=top;align=left;fillColor=#f8cecc;strokeColor=#b85450;" vertex="1" parent="1">
          <mxGeometry x="640" y="406" width="310" height="40" as="geometry" />
        </mxCell>
        <mxCell id="KPu6r4FRbTXP471V9_lv-56" value="disk1" style="rounded=0;whiteSpace=wrap;html=1;verticalAlign=top;align=left;fillColor=#f8cecc;strokeColor=#b85450;" vertex="1" parent="1">
          <mxGeometry x="670" y="416" width="310" height="40" as="geometry" />
        </mxCell>
        <mxCell id="KPu6r4FRbTXP471V9_lv-57" value="pod" style="rounded=1;whiteSpace=wrap;html=1;align=left;verticalAlign=top;" vertex="1" parent="1">
          <mxGeometry x="753" y="303" width="100" height="60" as="geometry" />
        </mxCell>
        <mxCell id="KPu6r4FRbTXP471V9_lv-58" style="rounded=0;orthogonalLoop=1;jettySize=auto;html=1;exitX=0.5;exitY=1;exitDx=0;exitDy=0;" edge="1" parent="1" source="KPu6r4FRbTXP471V9_lv-60">
          <mxGeometry relative="1" as="geometry">
            <mxPoint x="809" y="416" as="targetPoint" />
          </mxGeometry>
        </mxCell>
        <mxCell id="KPu6r4FRbTXP471V9_lv-59" value="挂载" style="edgeLabel;html=1;align=center;verticalAlign=middle;resizable=0;points=[];" vertex="1" connectable="0" parent="KPu6r4FRbTXP471V9_lv-58">
          <mxGeometry x="-0.0858" y="1" relative="1" as="geometry">
            <mxPoint as="offset" />
          </mxGeometry>
        </mxCell>
        <mxCell id="KPu6r4FRbTXP471V9_lv-60" value="container" style="rounded=1;whiteSpace=wrap;html=1;align=center;verticalAlign=middle;" vertex="1" parent="1">
          <mxGeometry x="773" y="323" width="70" height="29" as="geometry" />
        </mxCell>
        <mxCell id="KPu6r4FRbTXP471V9_lv-61" value="pod" style="rounded=1;whiteSpace=wrap;html=1;align=left;verticalAlign=top;" vertex="1" parent="1">
          <mxGeometry x="872" y="320.56" width="100" height="60" as="geometry" />
        </mxCell>
        <mxCell id="KPu6r4FRbTXP471V9_lv-62" style="rounded=0;orthogonalLoop=1;jettySize=auto;html=1;exitX=0.5;exitY=1;exitDx=0;exitDy=0;entryX=0.5;entryY=0;entryDx=0;entryDy=0;" edge="1" parent="1" source="KPu6r4FRbTXP471V9_lv-64">
          <mxGeometry relative="1" as="geometry">
            <mxPoint x="927" y="416" as="targetPoint" />
          </mxGeometry>
        </mxCell>
        <mxCell id="KPu6r4FRbTXP471V9_lv-63" value="挂载" style="edgeLabel;html=1;align=center;verticalAlign=middle;resizable=0;points=[];" vertex="1" connectable="0" parent="KPu6r4FRbTXP471V9_lv-62">
          <mxGeometry x="-0.0858" y="1" relative="1" as="geometry">
            <mxPoint as="offset" />
          </mxGeometry>
        </mxCell>
        <mxCell id="KPu6r4FRbTXP471V9_lv-64" value="container" style="rounded=1;whiteSpace=wrap;html=1;align=center;verticalAlign=middle;" vertex="1" parent="1">
          <mxGeometry x="892" y="340.56" width="70" height="29" as="geometry" />
        </mxCell>
        <mxCell id="KPu6r4FRbTXP471V9_lv-70" style="edgeStyle=none;rounded=0;orthogonalLoop=1;jettySize=auto;html=1;exitX=0.5;exitY=1;exitDx=0;exitDy=0;entryX=0.5;entryY=0;entryDx=0;entryDy=0;startArrow=none;startFill=0;endArrow=classic;endFill=1;" edge="1" parent="1" source="KPu6r4FRbTXP471V9_lv-67" target="KPu6r4FRbTXP471V9_lv-68">
          <mxGeometry relative="1" as="geometry" />
        </mxCell>
        <mxCell id="KPu6r4FRbTXP471V9_lv-71" style="edgeStyle=none;rounded=0;orthogonalLoop=1;jettySize=auto;html=1;entryX=0.5;entryY=0;entryDx=0;entryDy=0;startArrow=none;startFill=0;endArrow=classic;endFill=1;exitX=0.5;exitY=1;exitDx=0;exitDy=0;" edge="1" parent="1" source="KPu6r4FRbTXP471V9_lv-67" target="KPu6r4FRbTXP471V9_lv-69">
          <mxGeometry relative="1" as="geometry" />
        </mxCell>
        <mxCell id="KPu6r4FRbTXP471V9_lv-67" value="LogService DaemonSet" style="rounded=0;whiteSpace=wrap;html=1;align=center;verticalAlign=middle;fillColor=#b0e3e6;strokeColor=#0e8088;fontSize=16;" vertex="1" parent="1">
          <mxGeometry x="400" y="150" width="140" height="70" as="geometry" />
        </mxCell>
        <mxCell id="KPu6r4FRbTXP471V9_lv-72" style="edgeStyle=none;rounded=0;orthogonalLoop=1;jettySize=auto;html=1;exitX=0.5;exitY=1;exitDx=0;exitDy=0;entryX=0.823;entryY=0.017;entryDx=0;entryDy=0;entryPerimeter=0;fontSize=16;startArrow=none;startFill=0;endArrow=classic;endFill=1;" edge="1" parent="1" source="KPu6r4FRbTXP471V9_lv-68" target="KPu6r4FRbTXP471V9_lv-14">
          <mxGeometry relative="1" as="geometry" />
        </mxCell>
        <mxCell id="KPu6r4FRbTXP471V9_lv-68" value="pod" style="rounded=1;whiteSpace=wrap;html=1;align=center;verticalAlign=middle;fillColor=#b0e3e6;strokeColor=#0e8088;" vertex="1" parent="1">
          <mxGeometry x="500" y="303" width="50" height="40" as="geometry" />
        </mxCell>
        <mxCell id="KPu6r4FRbTXP471V9_lv-73" style="edgeStyle=none;rounded=0;orthogonalLoop=1;jettySize=auto;html=1;entryX=0.081;entryY=0.1;entryDx=0;entryDy=0;entryPerimeter=0;fontSize=16;startArrow=none;startFill=0;endArrow=classic;endFill=1;" edge="1" parent="1" source="KPu6r4FRbTXP471V9_lv-69" target="KPu6r4FRbTXP471V9_lv-55">
          <mxGeometry relative="1" as="geometry" />
        </mxCell>
        <mxCell id="KPu6r4FRbTXP471V9_lv-69" value="pod" style="rounded=1;whiteSpace=wrap;html=1;align=center;verticalAlign=middle;fillColor=#b0e3e6;strokeColor=#0e8088;" vertex="1" parent="1">
          <mxGeometry x="640" y="313" width="50" height="40" as="geometry" />
        </mxCell>
      </root>
    </mxGraphModel>
  </diagram>
</mxfile>
